<svg width="40" height="40" viewBox="0 0 40 40" fill="none" xmlns="http://www.w3.org/2000/svg">
<rect width="40" height="40" rx="20" fill="white" fill-opacity="0.1"/>
<path d="M19.9999 28.1459L18.1164 27.0554L18.1138 29.2205L20 30.3125L21.8858 29.2208L21.8832 27.0557L19.9999 28.1459ZM23.7568 25.9709L23.7595 28.136L28.9062 25.1562V19.1991L27.0312 20.2786V24.0752L23.7568 25.9709ZM27.0312 18.1151L28.9062 17.0355V14.8438L27.0351 13.7605L25.1639 14.8437L27.0312 15.9248V18.1151ZM23.2929 13.7605L25.1639 12.6772L20 9.6875L14.8359 12.6772L16.707 13.7605L19.9999 11.8541L23.2929 13.7605ZM14.8359 14.8438L12.9648 13.7605L11.0938 14.8438V17.0359L12.9687 18.1154V15.9248L14.8359 14.8438ZM11.0938 19.1995L12.9687 20.279V24.0752L16.2427 25.9707L16.2401 28.1357L11.0938 25.1562V19.1995ZM25.1562 17.0059L23.2928 15.927L19.9999 17.8335L16.7071 15.9271L14.8438 17.0059V19.195L18.1235 21.0833L18.119 24.8904L19.9999 25.9794L21.8805 24.8907L21.876 21.0832L25.1562 19.1946V17.0059ZM16.2453 23.8057L16.2472 22.1666L14.8438 21.3585V22.9943L16.2453 23.8057ZM18.5782 14.8438L19.9999 15.6669L21.4216 14.8438L20 14.0207L18.5782 14.8438ZM23.7523 22.1665L25.1562 21.3583V22.9942L23.7543 23.8059L23.7523 22.1665Z" fill="white" fill-opacity="0.5"/>
</svg>
