<svg width="24" height="24" viewBox="0 0 24 24" fill="none" xmlns="http://www.w3.org/2000/svg">
<mask id="mask0_3319_4225" style="mask-type:alpha" maskUnits="userSpaceOnUse" x="0" y="0" width="24" height="24">
<rect width="24" height="24" fill="#D9D9D9"/>
</mask>
<g mask="url(#mask0_3319_4225)">
<path d="M13.6537 12.1635H16.0095V9H13.6537V12.1635ZM4.88473 19.5L4.50973 18H6.44223V13.7788C6.1589 13.9019 5.87748 14.016 5.59798 14.121C5.31865 14.2262 5.04431 14.3237 4.77498 14.4135L4.49048 12.973C4.81348 12.8935 5.1394 12.7954 5.46823 12.6788C5.79706 12.5621 6.12173 12.4371 6.44223 12.3038V9H4.94223V7.5H6.44223V4.5H7.94223V7.5H9.24998V9H7.94223V11.5635C8.1859 11.4263 8.4244 11.2859 8.65773 11.1423C8.89106 10.9988 9.11923 10.8552 9.34223 10.7115V12.2213C9.1294 12.3751 8.90631 12.5247 8.67298 12.6702C8.43965 12.8158 8.19606 12.9519 7.94223 13.0787V19.5H4.88473ZM10.0212 19.5L9.19048 18.2635C9.94815 17.7583 10.5779 17.0948 11.0797 16.273C11.5817 15.4512 11.9039 14.5813 12.0462 13.6635H10.1537V12.1635H12.1537V9H10.6537V7.5H19.0095V9H17.5095V12.1635H19.5095V13.6635H17.5095V19.5H16.0095V13.6635H13.5615C13.3986 14.8275 13.0054 15.9329 12.3817 16.9798C11.7581 18.0266 10.9712 18.8667 10.0212 19.5ZM16.8652 7.9905L15.5922 7.44225C15.8461 7.03725 16.1115 6.6065 16.3885 6.15C16.6653 5.69367 16.9006 5.24942 17.0942 4.81725L18.4537 5.30975C18.2359 5.75458 17.9827 6.20875 17.6942 6.67225C17.4057 7.13558 17.1294 7.575 16.8652 7.9905ZM12.5635 7.74225C12.3058 7.36408 12.0209 6.96183 11.7087 6.5355C11.3966 6.10933 11.093 5.72058 10.798 5.36925L12.127 4.7405C12.4013 5.09167 12.6852 5.47367 12.9787 5.8865C13.2724 6.29933 13.5481 6.68975 13.8057 7.05775L12.5635 7.74225Z" fill="white" fill-opacity="0.5"/>
</g>
</svg>
