<svg width="24" height="24" viewBox="0 0 24 24" fill="none" xmlns="http://www.w3.org/2000/svg">
<mask id="mask0_1657_13882" style="mask-type:alpha" maskUnits="userSpaceOnUse" x="0" y="0" width="24" height="24">
<rect width="24" height="24" fill="#D9D9D9"/>
</mask>
<g mask="url(#mask0_1657_13882)">
<path d="M11.9985 4.5C14.0918 4.5 15.8654 5.22642 17.3193 6.67925C18.7731 8.13208 19.5 9.90517 19.5 11.9985C19.5 14.0918 18.7736 15.8654 17.3208 17.3193C15.8679 18.7731 14.0948 19.5 12.0015 19.5C9.90817 19.5 8.13458 18.7736 6.68075 17.3207C5.22692 15.8679 4.5 14.0948 4.5 12.0015C4.5 9.90817 5.22642 8.13458 6.67925 6.68075C8.13208 5.22692 9.90517 4.5 11.9985 4.5ZM12 18C13.6667 18 15.0833 17.4167 16.25 16.25C17.4167 15.0833 18 13.6667 18 12C18 10.3333 17.4167 8.91667 16.25 7.75C15.0833 6.58333 13.6667 6 12 6C10.3333 6 8.91667 6.58333 7.75 7.75C6.58333 8.91667 6 10.3333 6 12C6 13.6667 6.58333 15.0833 7.75 16.25C8.91667 17.4167 10.3333 18 12 18ZM12 15.3077C12.7552 15.3077 13.4366 15.0977 14.0443 14.6777C14.6519 14.2579 15.0922 13.6987 15.3652 13H8.63475C8.90775 13.6987 9.34808 14.2579 9.95575 14.6777C10.5634 15.0977 11.2448 15.3077 12 15.3077ZM8.63475 10.0017C8.63475 10.2583 8.7215 10.4728 8.895 10.6453C9.0685 10.8176 9.28358 10.9038 9.54025 10.9038C9.79675 10.9038 10.0113 10.817 10.1838 10.6435C10.3561 10.47 10.4423 10.2549 10.4423 9.99825C10.4423 9.74175 10.3555 9.52725 10.182 9.35475C10.0085 9.18242 9.79342 9.09625 9.53675 9.09625C9.28025 9.09625 9.06575 9.183 8.89325 9.3565C8.72092 9.53 8.63475 9.74508 8.63475 10.0017ZM13.5577 10.0017C13.5577 10.2583 13.6445 10.4728 13.818 10.6453C13.9915 10.8176 14.2066 10.9038 14.4633 10.9038C14.7198 10.9038 14.9343 10.817 15.1068 10.6435C15.2791 10.47 15.3652 10.2549 15.3652 9.99825C15.3652 9.74175 15.2785 9.52725 15.105 9.35475C14.9315 9.18242 14.7164 9.09625 14.4598 9.09625C14.2032 9.09625 13.9888 9.183 13.8163 9.3565C13.6439 9.53 13.5577 9.74508 13.5577 10.0017ZM1.5 6V1.5H6V3H3V6H1.5ZM1.5 22.5V18H3V21H6V22.5H1.5ZM18 22.4038V20.9038H21V17.9038H22.5V22.4038H18ZM21 6V3H18V1.5H22.5V6H21Z" fill="white" fill-opacity="0.5"/>
</g>
</svg>
