<svg width="24" height="24" viewBox="0 0 24 24" fill="none" xmlns="http://www.w3.org/2000/svg">
<mask id="mask0_3192_1105" style="mask-type:alpha" maskUnits="userSpaceOnUse" x="0" y="0" width="24" height="24">
<rect width="24" height="24" fill="#D9D9D9"/>
</mask>
<g mask="url(#mask0_3192_1105)">
<path d="M20.5 8.029H19V5H5V19H19V15.971H20.5V20.5H3.5V3.5H20.5V8.029ZM11.5 16.5V7.5H21.5V16.5H11.5ZM16 13.5C16.4167 13.5 16.7708 13.3542 17.0625 13.0625C17.3542 12.7708 17.5 12.4167 17.5 12C17.5 11.5833 17.3542 11.2292 17.0625 10.9375C16.7708 10.6458 16.4167 10.5 16 10.5C15.5833 10.5 15.2292 10.6458 14.9375 10.9375C14.6458 11.2292 14.5 11.5833 14.5 12C14.5 12.4167 14.6458 12.7708 14.9375 13.0625C15.2292 13.3542 15.5833 13.5 16 13.5ZM20 15V9H13V15H20Z" fill="white" fill-opacity="0.5"/>
</g>
</svg>
