<svg  viewBox="0 0 88 88" fill="none" xmlns="http://www.w3.org/2000/svg">
<mask id="mask0_1657_13778" style="mask-type:alpha" maskUnits="userSpaceOnUse" x="0" y="0" width="88" height="88">
<rect width="88" height="88" fill="#D9D9D9"/>
</mask>
<g mask="url(#mask0_1657_13778)">
<path fill-rule="evenodd" clip-rule="evenodd" d="M38.4605 3.66666C48.4669 6.29885 53.47 7.61491 53.47 7.61491C32.8737 24.5834 22.5756 33.0675 22.5756 33.0675C20.5437 34.2544 18.3592 33.9965 16.8526 32.3917C15.3461 30.787 14.749 28.0819 15.2884 25.305C15.8279 22.5282 17.4209 20.1065 19.4617 18.9608C32.1276 8.76464 38.4605 3.66666 38.4605 3.66666Z" fill="#E6E65C"/>
<path fill-rule="evenodd" clip-rule="evenodd" d="M31.6253 58.6639C26.6245 62.6425 20.866 63.5426 16.0856 61.0928C11.305 58.643 8.06187 53.1298 7.33333 46.2153C14.9438 50.3593 22.2615 49.4359 29.2867 43.4451C47.6081 28.898 56.7689 21.6245 56.7689 21.6245C59.7088 19.6835 62.9638 19.928 65.2002 22.2579C67.4367 24.5878 68.2787 28.6116 67.3814 32.6808C64.1807 33.407 61.5748 34.6886 59.5638 36.5255C40.9381 51.2845 31.6253 58.6639 31.6253 58.6639Z" fill="#E6E65C"/>
<path fill-rule="evenodd" clip-rule="evenodd" d="M49.6946 82.4609C39.9216 79.3539 35.3287 77.6942 35.3287 77.6942C45.2069 69.3939 84.9564 44.2859 77.9388 23.5571C99.8131 55.0644 54.1539 77.1634 49.6946 82.4609Z" fill="#E6E65C"/>
</g>
</svg>
