<svg width="48" height="32" viewBox="0 0 48 32" fill="none" xmlns="http://www.w3.org/2000/svg">
<mask id="mask0_3170_5296" style="mask-type:alpha" maskUnits="userSpaceOnUse" x="12" y="4" width="24" height="24">
<rect x="12" y="4" width="24" height="24" fill="#D9D9D9"/>
</mask>
<g mask="url(#mask0_3170_5296)">
<path d="M21.6923 25.5L21.3115 22.4538C21.0437 22.3641 20.769 22.2385 20.4875 22.077C20.2062 21.9153 19.9546 21.7422 19.7328 21.5577L16.9115 22.75L14.604 18.75L17.0443 16.9058C17.0213 16.7571 17.0049 16.6077 16.9953 16.4578C16.9856 16.3078 16.9808 16.1583 16.9808 16.0095C16.9808 15.8673 16.9856 15.7228 16.9953 15.576C17.0049 15.4292 17.0213 15.2686 17.0443 15.0943L14.604 13.25L16.9115 9.26925L19.723 10.452C19.9642 10.261 20.2216 10.0863 20.4953 9.928C20.7689 9.76967 21.0378 9.64242 21.302 9.54625L21.6923 6.5H26.3078L26.6885 9.55575C26.9885 9.66475 27.2599 9.792 27.5028 9.9375C27.7458 10.083 27.991 10.2545 28.2385 10.452L31.0885 9.26925L33.396 13.25L30.9173 15.123C30.9531 15.2845 30.9727 15.4355 30.976 15.576C30.9792 15.7163 30.9808 15.8577 30.9808 16C30.9808 16.1358 30.9775 16.274 30.971 16.4145C30.9647 16.5548 30.9417 16.7154 30.902 16.8963L33.3615 18.75L31.0538 22.75L28.2385 21.548C27.991 21.7455 27.7384 21.9202 27.4808 22.072C27.2231 22.224 26.959 22.3481 26.6885 22.4443L26.3078 25.5H21.6923ZM23 24H24.9655L25.325 21.3212C25.8353 21.1879 26.3017 20.9985 26.724 20.753C27.1465 20.5073 27.5539 20.1916 27.9463 19.8057L30.4308 20.85L31.4155 19.15L29.2463 17.5155C29.3296 17.2565 29.3863 17.0026 29.4163 16.7537C29.4464 16.5051 29.4615 16.2538 29.4615 16C29.4615 15.7397 29.4464 15.4884 29.4163 15.2463C29.3863 15.0039 29.3296 14.7564 29.2463 14.5038L31.4345 12.85L30.45 11.15L27.9365 12.2095C27.6018 11.8518 27.2009 11.5358 26.7338 11.2615C26.2664 10.9872 25.7937 10.7929 25.3155 10.6788L25 8H23.0155L22.6845 10.6693C22.1743 10.7898 21.7033 10.9743 21.2713 11.223C20.8391 11.4718 20.4268 11.7923 20.0345 12.1845L17.55 11.15L16.5655 12.85L18.725 14.4595C18.6417 14.6968 18.5833 14.9437 18.55 15.2C18.5167 15.4563 18.5 15.7262 18.5 16.0095C18.5 16.2698 18.5167 16.525 18.55 16.775C18.5833 17.025 18.6385 17.2718 18.7155 17.5155L16.5655 19.15L17.55 20.85L20.025 19.8C20.4045 20.1897 20.8103 20.5089 21.2423 20.7578C21.6744 21.0064 22.152 21.1974 22.675 21.3307L23 24ZM24.0115 19C24.8435 19 25.5515 18.708 26.1355 18.124C26.7195 17.54 27.0115 16.832 27.0115 16C27.0115 15.168 26.7195 14.46 26.1355 13.876C25.5515 13.292 24.8435 13 24.0115 13C23.1692 13 22.4586 13.292 21.8798 13.876C21.3009 14.46 21.0115 15.168 21.0115 16C21.0115 16.832 21.3009 17.54 21.8798 18.124C22.4586 18.708 23.1692 19 24.0115 19Z" fill="white" fill-opacity="0.5"/>
</g>
</svg>
